<svg width="31" height="31" viewBox="0 0 31 31" fill="none" xmlns="http://www.w3.org/2000/svg">
<rect x="31" y="31" width="31" height="31" rx="5" transform="rotate(180 31 31)" fill="#D9FFEF"/>
<path d="M17.0694 21.2187L19.7872 18.4985C20.0711 18.2143 20.0709 17.7537 19.7867 17.4697C19.5025 17.1858 19.0419 17.186 18.7579 17.4702L16.0404 20.1902C15.7568 20.4738 15.2953 20.4738 15.0116 20.1902C15.0106 20.1891 15.0095 20.1881 15.0084 20.187L12.2543 17.4668C11.9685 17.1845 11.5079 17.1873 11.2255 17.4732C11.0855 17.6149 11.0156 17.7997 11.0156 17.9844C11.0156 18.172 11.0878 18.3597 11.2319 18.502L13.9846 21.2208C14.8357 22.0699 16.2188 22.0693 17.0694 21.2187Z" fill="#20CB85"/>
<path d="M16.2535 17.4751L16.2535 9.72748C16.2535 9.32569 15.9278 9 15.526 9C15.1242 9 14.7985 9.32569 14.7985 9.72748L14.7985 17.4751C14.7985 17.8769 15.1242 18.2026 15.526 18.2026C15.9278 18.2026 16.2535 17.8769 16.2535 17.4751Z" fill="#20CB85"/>
</svg>
