<svg width="31" height="31" viewBox="0 0 31 31" fill="none" xmlns="http://www.w3.org/2000/svg">
<rect width="31" height="31" rx="5" fill="#FDCFE7"/>
<path d="M13.9306 9.78129L11.2128 12.5015C10.9289 12.7857 10.9291 13.2463 11.2133 13.5303C11.4975 13.8143 11.9581 13.814 12.2421 13.5298L14.9596 10.8098C15.2432 10.5262 15.7047 10.5262 15.9884 10.8098C15.9894 10.8109 15.9905 10.8119 15.9916 10.813L18.7457 13.5332C19.0315 13.8155 19.4921 13.8127 19.7745 13.5268C19.9145 13.3851 19.9844 13.2003 19.9844 13.0157C19.9844 12.828 19.9122 12.6404 19.7681 12.4981L17.0154 9.77925C16.1643 8.93007 14.7812 8.93069 13.9306 9.78129Z" fill="#EF2993"/>
<path d="M14.7465 13.5249L14.7465 21.2725C14.7465 21.6743 15.0722 22 15.474 22C15.8758 22 16.2015 21.6743 16.2015 21.2725L16.2015 13.5249C16.2015 13.1231 15.8758 12.7974 15.474 12.7974C15.0722 12.7974 14.7465 13.1231 14.7465 13.5249Z" fill="#EF2993"/>
</svg>
