<svg width="24" height="24" viewBox="0 0 24 24" fill="none" xmlns="http://www.w3.org/2000/svg">
<path d="M3.9214 18.8142C3.62882 19.1068 3.17493 19.0848 2.91479 18.762C2.91479 18.762 3.06386 18.957 2.91127 18.7573C-0.464736 14.3417 -0.133986 8.00087 3.90347 3.96341C8.30145 -0.434568 15.4323 -0.434189 19.8309 3.96436C24.2294 8.36291 24.2296 15.494 19.8318 19.8918C15.7953 23.9283 9.45682 24.26 5.04169 20.8868C4.84077 20.7333 5.03206 20.8794 5.03206 20.8794C4.71114 20.6166 4.68853 20.1663 4.98091 19.8739L14.0477 10.807C14.194 10.6608 14.3122 10.7096 14.312 10.9146L14.3061 15.0942C14.3046 16.0941 15.8049 16.093 15.806 15.0927L15.8453 8.86177C15.8486 8.34401 15.4307 7.92827 14.9092 7.9331L8.70236 7.98904C7.70186 7.98994 7.70056 9.49008 8.70089 9.48901L12.8802 9.48289C13.086 9.48271 13.1352 9.60011 12.988 9.74732L3.9214 18.8142Z" fill="white"/>
</svg>
